<svg xmlns="http://www.w3.org/2000/svg" width="450" height="450" viewBox="0 0 450 450"><defs><clipPath id="a"><circle cx="225" cy="225" r="225" fill="none"/></clipPath></defs><g clip-path="url(#a)"><path d="M-30000-30000h60000v60000h-60000z"/><g transform="translate(-184.434 -622.972)"><g fill="#e8e8e8"><rect width="5.7" height="44" x="222.15" y="-505" rx="2.85"/><text x="225" y="-405" dominant-baseline="middle" font-family="system-ui" font-size="52.25" font-weight="600" text-anchor="middle">
          12
        </text></g><g fill="#e8e8e8" transform="rotate(30 225 225)"><rect width="5.7" height="44" x="222.15" y="-505" rx="2.85"/><text x="225" y="-405" dominant-baseline="middle" font-family="system-ui" font-size="52.25" font-weight="600" text-anchor="middle" transform="rotate(-30 225 -405)">
          1
        </text></g><g fill="#e8e8e8" transform="rotate(60 225 225)"><rect width="5.7" height="44" x="222.15" y="-505" rx="2.85"/><text x="225" y="-405" dominant-baseline="middle" font-family="system-ui" font-size="52.25" font-weight="600" text-anchor="middle" transform="rotate(-60 225 -405)">
          2
        </text></g><g fill="#e8e8e8" transform="rotate(90 225 225)"><rect width="5.7" height="44" x="222.15" y="-505" rx="2.85"/><text x="225" y="-405" dominant-baseline="middle" font-family="system-ui" font-size="52.25" font-weight="600" text-anchor="middle" transform="rotate(-90 225 -405)">
          3
        </text></g><g fill="#e8e8e8" transform="rotate(120 225 225)"><rect width="5.7" height="44" x="222.15" y="-505" rx="2.85"/><text x="225" y="-405" dominant-baseline="middle" font-family="system-ui" font-size="52.25" font-weight="600" text-anchor="middle" transform="rotate(-120 225 -405)">
          4
        </text></g><g fill="#e8e8e8" transform="rotate(150 225 225)"><rect width="5.7" height="44" x="222.15" y="-505" rx="2.85"/><text x="225" y="-405" dominant-baseline="middle" font-family="system-ui" font-size="52.25" font-weight="600" text-anchor="middle" transform="rotate(-150 225 -405)">
          5
        </text></g><g fill="#e8e8e8" transform="rotate(180 225 225)"><rect width="5.7" height="44" x="222.15" y="-505" rx="2.85"/><text x="225" y="-405" dominant-baseline="middle" font-family="system-ui" font-size="52.25" font-weight="600" text-anchor="middle" transform="rotate(-180 225 -405)">
          6
        </text></g><g fill="#e8e8e8" transform="rotate(210 225 225)"><rect width="5.7" height="44" x="222.15" y="-505" rx="2.85"/><text x="225" y="-405" dominant-baseline="middle" font-family="system-ui" font-size="52.25" font-weight="600" text-anchor="middle" transform="rotate(-210 225 -405)">
          7
        </text></g><g fill="#e8e8e8" transform="rotate(240 225 225)"><rect width="5.7" height="44" x="222.15" y="-505" rx="2.85"/><text x="225" y="-405" dominant-baseline="middle" font-family="system-ui" font-size="52.25" font-weight="600" text-anchor="middle" transform="rotate(-240 225 -405)">
          8
        </text></g><g fill="#e8e8e8" transform="rotate(270 225 225)"><rect width="5.7" height="44" x="222.15" y="-505" rx="2.85"/><text x="225" y="-405" dominant-baseline="middle" font-family="system-ui" font-size="52.25" font-weight="600" text-anchor="middle" transform="rotate(-270 225 -405)">
          9
        </text></g><g fill="#e8e8e8" transform="rotate(300 225 225)"><rect width="5.7" height="44" x="222.15" y="-505" rx="2.85"/><text x="225" y="-405" dominant-baseline="middle" font-family="system-ui" font-size="52.25" font-weight="600" text-anchor="middle" transform="rotate(-300 225 -405)">
          10
        </text></g><g fill="#e8e8e8" transform="rotate(330 225 225)"><rect width="5.7" height="44" x="222.15" y="-505" rx="2.85"/><text x="225" y="-405" dominant-baseline="middle" font-family="system-ui" font-size="52.25" font-weight="600" text-anchor="middle" transform="rotate(-330 225 -405)">
          11
        </text></g><rect width="2.25" height="26.4" x="223.875" y="-505" fill="#e8e8e8" opacity=".5" rx="1.125" transform="rotate(2.5 225 225)"/><rect width="2.25" height="26.4" x="223.875" y="-505" fill="#e8e8e8" opacity=".5" rx="1.125" transform="rotate(5 225 225)"/><rect width="3.75" height="36" x="223.125" y="-505" fill="#e8e8e8" opacity=".7" rx="1.875" transform="rotate(7.5 225 225)"/><rect width="2.25" height="26.4" x="223.875" y="-505" fill="#e8e8e8" opacity=".5" rx="1.125" transform="rotate(10 225 225)"/><rect width="2.25" height="26.4" x="223.875" y="-505" fill="#e8e8e8" opacity=".5" rx="1.125" transform="rotate(12.5 225 225)"/><rect width="5.25" height="45.6" x="222.375" y="-505" fill="#e8e8e8" opacity=".9" rx="2.625" transform="rotate(15 225 225)"/><rect width="2.25" height="26.4" x="223.875" y="-505" fill="#e8e8e8" opacity=".5" rx="1.125" transform="rotate(17.5 225 225)"/><rect width="2.25" height="26.4" x="223.875" y="-505" fill="#e8e8e8" opacity=".5" rx="1.125" transform="rotate(20 225 225)"/><rect width="3.75" height="36" x="223.125" y="-505" fill="#e8e8e8" opacity=".7" rx="1.875" transform="rotate(22.5 225 225)"/><rect width="2.25" height="26.4" x="223.875" y="-505" fill="#e8e8e8" opacity=".5" rx="1.125" transform="rotate(25 225 225)"/><rect width="2.25" height="26.4" x="223.875" y="-505" fill="#e8e8e8" opacity=".5" rx="1.125" transform="rotate(27.5 225 225)"/><rect width="2.25" height="26.4" x="223.875" y="-505" fill="#e8e8e8" opacity=".5" rx="1.125" transform="rotate(32.5 225 225)"/><rect width="2.25" height="26.4" x="223.875" y="-505" fill="#e8e8e8" opacity=".5" rx="1.125" transform="rotate(35 225 225)"/><rect width="3.75" height="36" x="223.125" y="-505" fill="#e8e8e8" opacity=".7" rx="1.875" transform="rotate(37.5 225 225)"/><rect width="2.25" height="26.4" x="223.875" y="-505" fill="#e8e8e8" opacity=".5" rx="1.125" transform="rotate(40 225 225)"/><rect width="2.25" height="26.4" x="223.875" y="-505" fill="#e8e8e8" opacity=".5" rx="1.125" transform="rotate(42.5 225 225)"/><rect width="5.25" height="45.6" x="222.375" y="-505" fill="#e8e8e8" opacity=".9" rx="2.625" transform="rotate(45 225 225)"/><rect width="2.25" height="26.4" x="223.875" y="-505" fill="#e8e8e8" opacity=".5" rx="1.125" transform="rotate(47.5 225 225)"/><rect width="2.25" height="26.4" x="223.875" y="-505" fill="#e8e8e8" opacity=".5" rx="1.125" transform="rotate(50 225 225)"/><rect width="3.75" height="36" x="223.125" y="-505" fill="#e8e8e8" opacity=".7" rx="1.875" transform="rotate(52.5 225 225)"/><rect width="2.25" height="26.4" x="223.875" y="-505" fill="#e8e8e8" opacity=".5" rx="1.125" transform="rotate(55 225 225)"/><rect width="2.25" height="26.4" x="223.875" y="-505" fill="#e8e8e8" opacity=".5" rx="1.125" transform="rotate(57.5 225 225)"/><rect width="2.25" height="26.4" x="223.875" y="-505" fill="#e8e8e8" opacity=".5" rx="1.125" transform="rotate(62.5 225 225)"/><rect width="2.25" height="26.4" x="223.875" y="-505" fill="#e8e8e8" opacity=".5" rx="1.125" transform="rotate(65 225 225)"/><rect width="3.75" height="36" x="223.125" y="-505" fill="#e8e8e8" opacity=".7" rx="1.875" transform="rotate(67.5 225 225)"/><rect width="2.25" height="26.4" x="223.875" y="-505" fill="#e8e8e8" opacity=".5" rx="1.125" transform="rotate(70 225 225)"/><rect width="2.25" height="26.4" x="223.875" y="-505" fill="#e8e8e8" opacity=".5" rx="1.125" transform="rotate(72.5 225 225)"/><rect width="5.25" height="45.6" x="222.375" y="-505" fill="#e8e8e8" opacity=".9" rx="2.625" transform="rotate(75 225 225)"/><rect width="2.25" height="26.4" x="223.875" y="-505" fill="#e8e8e8" opacity=".5" rx="1.125" transform="rotate(77.5 225 225)"/><rect width="2.25" height="26.4" x="223.875" y="-505" fill="#e8e8e8" opacity=".5" rx="1.125" transform="rotate(80 225 225)"/><rect width="3.75" height="36" x="223.125" y="-505" fill="#e8e8e8" opacity=".7" rx="1.875" transform="rotate(82.5 225 225)"/><rect width="2.25" height="26.4" x="223.875" y="-505" fill="#e8e8e8" opacity=".5" rx="1.125" transform="rotate(85 225 225)"/><rect width="2.25" height="26.4" x="223.875" y="-505" fill="#e8e8e8" opacity=".5" rx="1.125" transform="rotate(87.5 225 225)"/><rect width="2.25" height="26.4" x="223.875" y="-505" fill="#e8e8e8" opacity=".5" rx="1.125" transform="rotate(92.5 225 225)"/><rect width="2.25" height="26.4" x="223.875" y="-505" fill="#e8e8e8" opacity=".5" rx="1.125" transform="rotate(95 225 225)"/><rect width="3.75" height="36" x="223.125" y="-505" fill="#e8e8e8" opacity=".7" rx="1.875" transform="rotate(97.5 225 225)"/><rect width="2.25" height="26.4" x="223.875" y="-505" fill="#e8e8e8" opacity=".5" rx="1.125" transform="rotate(100 225 225)"/><rect width="2.25" height="26.4" x="223.875" y="-505" fill="#e8e8e8" opacity=".5" rx="1.125" transform="rotate(102.5 225 225)"/><rect width="5.25" height="45.6" x="222.375" y="-505" fill="#e8e8e8" opacity=".9" rx="2.625" transform="rotate(105 225 225)"/><rect width="2.25" height="26.4" x="223.875" y="-505" fill="#e8e8e8" opacity=".5" rx="1.125" transform="rotate(107.5 225 225)"/><rect width="2.25" height="26.4" x="223.875" y="-505" fill="#e8e8e8" opacity=".5" rx="1.125" transform="rotate(110 225 225)"/><rect width="3.75" height="36" x="223.125" y="-505" fill="#e8e8e8" opacity=".7" rx="1.875" transform="rotate(112.5 225 225)"/><rect width="2.25" height="26.4" x="223.875" y="-505" fill="#e8e8e8" opacity=".5" rx="1.125" transform="rotate(115 225 225)"/><rect width="2.25" height="26.4" x="223.875" y="-505" fill="#e8e8e8" opacity=".5" rx="1.125" transform="rotate(117.5 225 225)"/><rect width="2.25" height="26.4" x="223.875" y="-505" fill="#e8e8e8" opacity=".5" rx="1.125" transform="rotate(122.5 225 225)"/><rect width="2.25" height="26.4" x="223.875" y="-505" fill="#e8e8e8" opacity=".5" rx="1.125" transform="rotate(125 225 225)"/><rect width="3.75" height="36" x="223.125" y="-505" fill="#e8e8e8" opacity=".7" rx="1.875" transform="rotate(127.5 225 225)"/><rect width="2.25" height="26.4" x="223.875" y="-505" fill="#e8e8e8" opacity=".5" rx="1.125" transform="rotate(130 225 225)"/><rect width="2.25" height="26.4" x="223.875" y="-505" fill="#e8e8e8" opacity=".5" rx="1.125" transform="rotate(132.5 225 225)"/><rect width="5.25" height="45.6" x="222.375" y="-505" fill="#e8e8e8" opacity=".9" rx="2.625" transform="rotate(135 225 225)"/><rect width="2.25" height="26.4" x="223.875" y="-505" fill="#e8e8e8" opacity=".5" rx="1.125" transform="rotate(137.5 225 225)"/><rect width="2.25" height="26.4" x="223.875" y="-505" fill="#e8e8e8" opacity=".5" rx="1.125" transform="rotate(140 225 225)"/><rect width="3.75" height="36" x="223.125" y="-505" fill="#e8e8e8" opacity=".7" rx="1.875" transform="rotate(142.5 225 225)"/><rect width="2.25" height="26.4" x="223.875" y="-505" fill="#e8e8e8" opacity=".5" rx="1.125" transform="rotate(145 225 225)"/><rect width="2.25" height="26.4" x="223.875" y="-505" fill="#e8e8e8" opacity=".5" rx="1.125" transform="rotate(147.5 225 225)"/><rect width="2.25" height="26.4" x="223.875" y="-505" fill="#e8e8e8" opacity=".5" rx="1.125" transform="rotate(152.5 225 225)"/><rect width="2.25" height="26.4" x="223.875" y="-505" fill="#e8e8e8" opacity=".5" rx="1.125" transform="rotate(155 225 225)"/><rect width="3.75" height="36" x="223.125" y="-505" fill="#e8e8e8" opacity=".7" rx="1.875" transform="rotate(157.5 225 225)"/><rect width="2.25" height="26.4" x="223.875" y="-505" fill="#e8e8e8" opacity=".5" rx="1.125" transform="rotate(160 225 225)"/><rect width="2.25" height="26.4" x="223.875" y="-505" fill="#e8e8e8" opacity=".5" rx="1.125" transform="rotate(162.5 225 225)"/><rect width="5.25" height="45.6" x="222.375" y="-505" fill="#e8e8e8" opacity=".9" rx="2.625" transform="rotate(165 225 225)"/><rect width="2.25" height="26.4" x="223.875" y="-505" fill="#e8e8e8" opacity=".5" rx="1.125" transform="rotate(167.5 225 225)"/><rect width="2.25" height="26.4" x="223.875" y="-505" fill="#e8e8e8" opacity=".5" rx="1.125" transform="rotate(170 225 225)"/><rect width="3.75" height="36" x="223.125" y="-505" fill="#e8e8e8" opacity=".7" rx="1.875" transform="rotate(172.5 225 225)"/><rect width="2.25" height="26.4" x="223.875" y="-505" fill="#e8e8e8" opacity=".5" rx="1.125" transform="rotate(175 225 225)"/><rect width="2.25" height="26.4" x="223.875" y="-505" fill="#e8e8e8" opacity=".5" rx="1.125" transform="rotate(177.5 225 225)"/><rect width="2.25" height="26.4" x="223.875" y="-505" fill="#e8e8e8" opacity=".5" rx="1.125" transform="rotate(182.5 225 225)"/><rect width="2.25" height="26.4" x="223.875" y="-505" fill="#e8e8e8" opacity=".5" rx="1.125" transform="rotate(185 225 225)"/><rect width="3.75" height="36" x="223.125" y="-505" fill="#e8e8e8" opacity=".7" rx="1.875" transform="rotate(187.5 225 225)"/><rect width="2.25" height="26.4" x="223.875" y="-505" fill="#e8e8e8" opacity=".5" rx="1.125" transform="rotate(190 225 225)"/><rect width="2.25" height="26.4" x="223.875" y="-505" fill="#e8e8e8" opacity=".5" rx="1.125" transform="rotate(192.5 225 225)"/><rect width="5.25" height="45.6" x="222.375" y="-505" fill="#e8e8e8" opacity=".9" rx="2.625" transform="rotate(195 225 225)"/><rect width="2.25" height="26.4" x="223.875" y="-505" fill="#e8e8e8" opacity=".5" rx="1.125" transform="rotate(197.5 225 225)"/><rect width="2.25" height="26.4" x="223.875" y="-505" fill="#e8e8e8" opacity=".5" rx="1.125" transform="rotate(200 225 225)"/><rect width="3.75" height="36" x="223.125" y="-505" fill="#e8e8e8" opacity=".7" rx="1.875" transform="rotate(202.5 225 225)"/><rect width="2.25" height="26.4" x="223.875" y="-505" fill="#e8e8e8" opacity=".5" rx="1.125" transform="rotate(205 225 225)"/><rect width="2.25" height="26.4" x="223.875" y="-505" fill="#e8e8e8" opacity=".5" rx="1.125" transform="rotate(207.5 225 225)"/><rect width="2.25" height="26.4" x="223.875" y="-505" fill="#e8e8e8" opacity=".5" rx="1.125" transform="rotate(212.5 225 225)"/><rect width="2.25" height="26.4" x="223.875" y="-505" fill="#e8e8e8" opacity=".5" rx="1.125" transform="rotate(215 225 225)"/><rect width="3.75" height="36" x="223.125" y="-505" fill="#e8e8e8" opacity=".7" rx="1.875" transform="rotate(217.5 225 225)"/><rect width="2.25" height="26.4" x="223.875" y="-505" fill="#e8e8e8" opacity=".5" rx="1.125" transform="rotate(220 225 225)"/><rect width="2.25" height="26.4" x="223.875" y="-505" fill="#e8e8e8" opacity=".5" rx="1.125" transform="rotate(222.5 225 225)"/><rect width="5.25" height="45.6" x="222.375" y="-505" fill="#e8e8e8" opacity=".9" rx="2.625" transform="rotate(225 225 225)"/><rect width="2.25" height="26.4" x="223.875" y="-505" fill="#e8e8e8" opacity=".5" rx="1.125" transform="rotate(227.5 225 225)"/><rect width="2.25" height="26.4" x="223.875" y="-505" fill="#e8e8e8" opacity=".5" rx="1.125" transform="rotate(230 225 225)"/><rect width="3.75" height="36" x="223.125" y="-505" fill="#e8e8e8" opacity=".7" rx="1.875" transform="rotate(232.5 225 225)"/><rect width="2.25" height="26.4" x="223.875" y="-505" fill="#e8e8e8" opacity=".5" rx="1.125" transform="rotate(235 225 225)"/><rect width="2.25" height="26.4" x="223.875" y="-505" fill="#e8e8e8" opacity=".5" rx="1.125" transform="rotate(237.5 225 225)"/><rect width="2.25" height="26.4" x="223.875" y="-505" fill="#e8e8e8" opacity=".5" rx="1.125" transform="rotate(242.5 225 225)"/><rect width="2.25" height="26.4" x="223.875" y="-505" fill="#e8e8e8" opacity=".5" rx="1.125" transform="rotate(245 225 225)"/><rect width="3.75" height="36" x="223.125" y="-505" fill="#e8e8e8" opacity=".7" rx="1.875" transform="rotate(247.5 225 225)"/><rect width="2.25" height="26.4" x="223.875" y="-505" fill="#e8e8e8" opacity=".5" rx="1.125" transform="rotate(250 225 225)"/><rect width="2.25" height="26.4" x="223.875" y="-505" fill="#e8e8e8" opacity=".5" rx="1.125" transform="rotate(252.5 225 225)"/><rect width="5.25" height="45.6" x="222.375" y="-505" fill="#e8e8e8" opacity=".9" rx="2.625" transform="rotate(255 225 225)"/><rect width="2.25" height="26.4" x="223.875" y="-505" fill="#e8e8e8" opacity=".5" rx="1.125" transform="rotate(257.5 225 225)"/><rect width="2.25" height="26.4" x="223.875" y="-505" fill="#e8e8e8" opacity=".5" rx="1.125" transform="rotate(260 225 225)"/><rect width="3.75" height="36" x="223.125" y="-505" fill="#e8e8e8" opacity=".7" rx="1.875" transform="rotate(262.5 225 225)"/><rect width="2.25" height="26.4" x="223.875" y="-505" fill="#e8e8e8" opacity=".5" rx="1.125" transform="rotate(265 225 225)"/><rect width="2.25" height="26.4" x="223.875" y="-505" fill="#e8e8e8" opacity=".5" rx="1.125" transform="rotate(267.5 225 225)"/><rect width="2.25" height="26.4" x="223.875" y="-505" fill="#e8e8e8" opacity=".5" rx="1.125" transform="rotate(272.5 225 225)"/><rect width="2.25" height="26.4" x="223.875" y="-505" fill="#e8e8e8" opacity=".5" rx="1.125" transform="rotate(275 225 225)"/><rect width="3.75" height="36" x="223.125" y="-505" fill="#e8e8e8" opacity=".7" rx="1.875" transform="rotate(277.5 225 225)"/><rect width="2.25" height="26.4" x="223.875" y="-505" fill="#e8e8e8" opacity=".5" rx="1.125" transform="rotate(280 225 225)"/><rect width="2.25" height="26.4" x="223.875" y="-505" fill="#e8e8e8" opacity=".5" rx="1.125" transform="rotate(282.5 225 225)"/><rect width="5.25" height="45.6" x="222.375" y="-505" fill="#e8e8e8" opacity=".9" rx="2.625" transform="rotate(285 225 225)"/><rect width="2.25" height="26.4" x="223.875" y="-505" fill="#e8e8e8" opacity=".5" rx="1.125" transform="rotate(287.5 225 225)"/><rect width="2.25" height="26.4" x="223.875" y="-505" fill="#e8e8e8" opacity=".5" rx="1.125" transform="rotate(290 225 225)"/><rect width="3.75" height="36" x="223.125" y="-505" fill="#e8e8e8" opacity=".7" rx="1.875" transform="rotate(292.5 225 225)"/><rect width="2.25" height="26.4" x="223.875" y="-505" fill="#e8e8e8" opacity=".5" rx="1.125" transform="rotate(295 225 225)"/><rect width="2.25" height="26.4" x="223.875" y="-505" fill="#e8e8e8" opacity=".5" rx="1.125" transform="rotate(297.5 225 225)"/><rect width="2.25" height="26.4" x="223.875" y="-505" fill="#e8e8e8" opacity=".5" rx="1.125" transform="rotate(302.5 225 225)"/><rect width="2.25" height="26.4" x="223.875" y="-505" fill="#e8e8e8" opacity=".5" rx="1.125" transform="rotate(305 225 225)"/><rect width="3.75" height="36" x="223.125" y="-505" fill="#e8e8e8" opacity=".7" rx="1.875" transform="rotate(307.5 225 225)"/><rect width="2.25" height="26.4" x="223.875" y="-505" fill="#e8e8e8" opacity=".5" rx="1.125" transform="rotate(310 225 225)"/><rect width="2.25" height="26.4" x="223.875" y="-505" fill="#e8e8e8" opacity=".5" rx="1.125" transform="rotate(312.5 225 225)"/><rect width="5.25" height="45.6" x="222.375" y="-505" fill="#e8e8e8" opacity=".9" rx="2.625" transform="rotate(315 225 225)"/><rect width="2.25" height="26.4" x="223.875" y="-505" fill="#e8e8e8" opacity=".5" rx="1.125" transform="rotate(317.5 225 225)"/><rect width="2.25" height="26.4" x="223.875" y="-505" fill="#e8e8e8" opacity=".5" rx="1.125" transform="rotate(320 225 225)"/><rect width="3.75" height="36" x="223.125" y="-505" fill="#e8e8e8" opacity=".7" rx="1.875" transform="rotate(322.5 225 225)"/><rect width="2.25" height="26.4" x="223.875" y="-505" fill="#e8e8e8" opacity=".5" rx="1.125" transform="rotate(325 225 225)"/><rect width="2.25" height="26.4" x="223.875" y="-505" fill="#e8e8e8" opacity=".5" rx="1.125" transform="rotate(327.5 225 225)"/><rect width="2.25" height="26.4" x="223.875" y="-505" fill="#e8e8e8" opacity=".5" rx="1.125" transform="rotate(332.5 225 225)"/><rect width="2.25" height="26.4" x="223.875" y="-505" fill="#e8e8e8" opacity=".5" rx="1.125" transform="rotate(335 225 225)"/><rect width="3.75" height="36" x="223.125" y="-505" fill="#e8e8e8" opacity=".7" rx="1.875" transform="rotate(337.5 225 225)"/><rect width="2.25" height="26.4" x="223.875" y="-505" fill="#e8e8e8" opacity=".5" rx="1.125" transform="rotate(340 225 225)"/><rect width="2.25" height="26.4" x="223.875" y="-505" fill="#e8e8e8" opacity=".5" rx="1.125" transform="rotate(342.5 225 225)"/><rect width="5.25" height="45.6" x="222.375" y="-505" fill="#e8e8e8" opacity=".9" rx="2.625" transform="rotate(345 225 225)"/><rect width="2.25" height="26.4" x="223.875" y="-505" fill="#e8e8e8" opacity=".5" rx="1.125" transform="rotate(347.5 225 225)"/><rect width="2.25" height="26.4" x="223.875" y="-505" fill="#e8e8e8" opacity=".5" rx="1.125" transform="rotate(350 225 225)"/><rect width="3.75" height="36" x="223.125" y="-505" fill="#e8e8e8" opacity=".7" rx="1.875" transform="rotate(352.5 225 225)"/><rect width="2.25" height="26.4" x="223.875" y="-505" fill="#e8e8e8" opacity=".5" rx="1.125" transform="rotate(355 225 225)"/><rect width="2.25" height="26.4" x="223.875" y="-505" fill="#e8e8e8" opacity=".5" rx="1.125" transform="rotate(357.5 225 225)"/><rect width="4" height="2928" x="223" y="-2695" fill="#ff9d47" rx="2" transform="rotate(163.508 225 225)"/><circle cx="225" cy="225" r="8" fill="#e8e8e8"/></g></g></svg>